<svg width="117" height="118" fill="none" xmlns="http://www.w3.org/2000/svg"><path d="M111.15 97.945h-2.145a9.744 9.744 0 0 0-5.655-6.98v-10.57a9.748 9.748 0 0 0-9.75-9.75 9.75 9.75 0 0 0-9.75 9.75v10.57a9.75 9.75 0 0 0-5.655 6.98H76.05a5.85 5.85 0 0 0-2.516.585 1.95 1.95 0 0 0-.682-.448L83.85 65.419a1.95 1.95 0 0 0-.273-1.755 1.95 1.95 0 0 0-1.677-.819h-5.85v-3.9h11.7a1.95 1.95 0 1 0 0-3.9h-11.7v-9.75a9.75 9.75 0 0 0-8.931-9.75 11.7 11.7 0 0 0 3.081-7.8v-5.85a9.75 9.75 0 0 0 3.9-7.8 1.95 1.95 0 0 0-1.95-1.95h-15.6a9.75 9.75 0 0 0-9.75 9.75v5.85a11.7 11.7 0 0 0 3.081 7.8 9.75 9.75 0 0 0-8.931 9.75v1.95a1.95 1.95 0 1 0 3.9 0v-1.95a5.85 5.85 0 0 1 5.85-5.85h3.432l-2.535 2.516a1.95 1.95 0 0 0 0 2.769l5.518 5.518a1.95 1.95 0 0 0 2.77 0l5.518-5.518a1.949 1.949 0 0 0 0-2.77l-2.535-2.515H66.3a5.85 5.85 0 0 1 5.85 5.85v17.55h-3.9v-5.85a1.95 1.95 0 0 0-1.95-1.95H50.7a1.95 1.95 0 0 0-1.95 1.95v5.85h-3.9v-7.8a1.95 1.95 0 1 0-3.9 0H5.85a1.95 1.95 0 0 1-1.95-1.95v-42.9a5.85 5.85 0 0 1 5.85-5.85h11.7a1.95 1.95 0 1 0 0-3.9H9.75A9.75 9.75 0 0 0 0 10.195v42.9a5.85 5.85 0 0 0 5.85 5.85h35.1v3.9H35.1a1.95 1.95 0 0 0-1.58.82 1.95 1.95 0 0 0-.273 1.754l10.901 32.663c-.257.1-.49.252-.683.448a5.85 5.85 0 0 0-2.515-.585h-2.145a9.75 9.75 0 0 0-7.8-7.624 9.613 9.613 0 0 0 2.145-6.026 9.75 9.75 0 0 0-19.5 0 9.613 9.613 0 0 0 2.145 6.026 9.75 9.75 0 0 0-7.8 7.624H5.85a5.85 5.85 0 0 0-5.85 5.85v11.7a1.951 1.951 0 0 0 3.9 0v-5.85h3.9v5.85a1.951 1.951 0 0 0 1.95 1.95h27.3a1.949 1.949 0 0 0 1.95-1.95v-5.85h3.9v5.85a1.951 1.951 0 0 0 3.9 0v-5.85h3.9a1.949 1.949 0 0 0 1.379-3.329 1.953 1.953 0 0 0-1.379-.571h-3.9v-3.9h23.4v3.9H58.5a1.953 1.953 0 0 0-1.95 1.95 1.951 1.951 0 0 0 1.95 1.95h11.7v5.85a1.951 1.951 0 0 0 3.9 0v-5.85H78v5.85a1.951 1.951 0 0 0 1.95 1.95h27.3a1.95 1.95 0 0 0 1.95-1.95v-5.85h3.9v5.85a1.95 1.95 0 1 0 3.9 0v-11.7a5.85 5.85 0 0 0-5.85-5.85Zm-44.85-74.1v3.9a7.8 7.8 0 1 1-15.6 0v-3.9h15.6Zm-9.75-7.8h13.319a5.85 5.85 0 0 1-5.519 3.9H51.032a5.85 5.85 0 0 1 5.518-3.9Zm1.95 30.07-2.769-2.77 2.769-2.769 2.769 2.77-2.769 2.768Zm29.25 34.28a5.85 5.85 0 0 1 11.7 0v9.75h-11.7v-9.75Zm-35.1-21.45h11.7v3.9h-11.7v-3.9Zm-29.25 19.5a5.85 5.85 0 1 1 0 11.7 5.85 5.85 0 0 1 0-11.7Zm-19.5 27.3v-1.95a1.951 1.951 0 0 1 1.95-1.95H7.8v3.9H3.9Zm23.4 0h-9.75a1.949 1.949 0 0 1-1.95-1.95 1.952 1.952 0 0 1 .604-1.384c.173-.183.382-.327.614-.424.231-.098.48-.146.732-.142h11.7a1.953 1.953 0 0 1 1.95 1.95 1.944 1.944 0 0 1-.604 1.385 1.813 1.813 0 0 1-1.346.565H27.3Zm-5.85 3.9h3.9v3.9h-3.9v-3.9Zm13.65 3.9h-5.85v-3.9a5.85 5.85 0 1 0 0-11.7h-11.7a5.85 5.85 0 0 0 0 11.7v3.9H11.7v-13.65a5.85 5.85 0 0 1 5.85-5.85h11.7a5.85 5.85 0 0 1 5.85 5.85v13.65Zm3.9-11.7h1.95a1.953 1.953 0 0 1 1.95 1.95v1.95H39v-3.9Zm9.204-3.9-10.394-31.2h41.38l-10.394 31.2H48.204Zm25.896 7.8v-1.95a1.951 1.951 0 0 1 1.95-1.95H78v3.9h-3.9Zm23.4 0h-9.75a1.949 1.949 0 0 1-1.95-1.95 1.952 1.952 0 0 1 .605-1.384 1.804 1.804 0 0 1 1.346-.566h11.699a1.954 1.954 0 0 1 1.95 1.95 1.948 1.948 0 0 1-.605 1.385 1.8 1.8 0 0 1-1.345.565H97.5Zm-5.85 3.9h3.9v3.9h-3.9v-3.9Zm13.65 3.9h-5.85v-3.9a5.852 5.852 0 0 0 5.85-5.85 5.85 5.85 0 0 0-5.85-5.85h-11.7a5.85 5.85 0 0 0 0 11.7v3.9H81.9v-13.65a5.85 5.85 0 0 1 5.85-5.85h11.7a5.852 5.852 0 0 1 5.85 5.85v13.65Zm3.9-11.7h1.95a1.95 1.95 0 0 1 1.95 1.95v1.95h-3.9v-3.9Z" fill="#F79009"/><path d="M107.251.445h-78a1.95 1.95 0 1 0 0 3.9h78a5.85 5.85 0 0 1 5.85 5.85v42.9a1.953 1.953 0 0 1-1.95 1.95h-15.6a1.95 1.95 0 0 0 0 3.9h15.6a5.85 5.85 0 0 0 5.85-5.85v-42.9a9.748 9.748 0 0 0-9.75-9.75ZM58.5 70.645a5.85 5.85 0 1 0 0 11.7 5.85 5.85 0 0 0 0-11.7Zm0 7.8a1.95 1.95 0 1 1 0-3.9 1.95 1.95 0 0 1 0 3.9ZM62.4 86.245h-7.8a1.95 1.95 0 0 0 0 3.9h7.8a1.95 1.95 0 1 0 0-3.9Z" fill="#F79009"/><path d="M42.9 14.095a1.95 1.95 0 0 0-1.95-1.95h-27.3a1.95 1.95 0 0 0 0 3.9h27.3a1.95 1.95 0 0 0 1.95-1.95ZM13.65 31.645h7.8a1.95 1.95 0 0 0 1.95-1.95v-7.8a1.95 1.95 0 0 0-1.95-1.95h-7.8a1.95 1.95 0 0 0-1.95 1.95v7.8a1.95 1.95 0 0 0 1.95 1.95Zm1.95-7.8h3.9v3.9h-3.9v-3.9ZM39 29.695v-7.8a1.95 1.95 0 0 0-1.95-1.95h-7.8a1.95 1.95 0 0 0-1.95 1.95v7.8a1.95 1.95 0 0 0 1.95 1.95h7.8a1.95 1.95 0 0 0 1.95-1.95Zm-3.9-1.95h-3.9v-3.9h3.9v3.9ZM33.15 35.545h-19.5a1.95 1.95 0 0 0 0 3.9h19.5a1.95 1.95 0 1 0 0-3.9ZM33.15 43.345h-19.5a1.95 1.95 0 0 0 0 3.9h19.5a1.95 1.95 0 1 0 0-3.9ZM83.85 16.046h19.5a1.948 1.948 0 0 0 1.95-1.95 1.949 1.949 0 0 0-1.95-1.95h-19.5a1.95 1.95 0 0 0 0 3.9ZM83.85 23.845h19.5a1.948 1.948 0 0 0 1.95-1.95 1.948 1.948 0 0 0-1.95-1.95h-19.5a1.95 1.95 0 0 0 0 3.9ZM83.85 31.645h19.5a1.948 1.948 0 0 0 1.95-1.95 1.948 1.948 0 0 0-1.95-1.95h-19.5a1.95 1.95 0 0 0 0 3.9ZM82.875 44.32a5.85 5.85 0 1 0 11.7 0 5.85 5.85 0 0 0-11.7 0Zm7.8 0a1.95 1.95 0 1 1-3.901 0 1.95 1.95 0 0 1 3.901 0ZM103.35 35.545a1.95 1.95 0 0 0-1.95 1.95v11.7a1.95 1.95 0 0 0 3.9 0v-11.7a1.948 1.948 0 0 0-1.95-1.95Z" fill="#F79009"/></svg>