<svg width="114" height="122" fill="none" xmlns="http://www.w3.org/2000/svg"><path d="M108.406 102.544h-2.294V92.498c0-3.16-2.57-5.73-5.729-5.73H62.916a.187.187 0 0 1-.187-.186v-4.13h17.934c3.16 0 5.73-2.57 5.73-5.73V32.213l1.283.856a3.734 3.734 0 0 0 2.822.558 3.733 3.733 0 0 0 2.389-1.6l2.188-3.282a3.762 3.762 0 0 0-1.042-5.21L60.178.965a5.714 5.714 0 0 0-6.356 0l-33.855 22.57a3.761 3.761 0 0 0-1.042 5.21l2.188 3.282a3.733 3.733 0 0 0 2.39 1.6 3.73 3.73 0 0 0 2.821-.558l1.283-.856v5.444a1.786 1.786 0 0 0 3.571 0v-7.824l25.719-17.146a.186.186 0 0 1 .207 0l25.718 17.146v25.384h-4.198a3.694 3.694 0 0 0-3.69 3.69v4.08a3.694 3.694 0 0 0 3.69 3.69h4.198v10.045a2.16 2.16 0 0 1-2.159 2.159h-2.158v-4.198a3.694 3.694 0 0 0-3.69-3.69h-4.198v-4.198a3.694 3.694 0 0 0-3.69-3.69h-.254V50.901h.254a3.694 3.694 0 0 0 3.69-3.69v-4.08a3.694 3.694 0 0 0-3.69-3.689H47.073a3.694 3.694 0 0 0-3.69 3.69v4.079a3.694 3.694 0 0 0 3.69 3.69h.254v12.204h-.254a3.694 3.694 0 0 0-3.69 3.69v4.198h-4.198a3.694 3.694 0 0 0-3.69 3.69v4.198h-2.158a2.161 2.161 0 0 1-2.159-2.159V66.676h4.198a3.694 3.694 0 0 0 3.69-3.69v-4.079a3.694 3.694 0 0 0-3.69-3.69h-4.198V44.798a1.786 1.786 0 0 0-3.57 0v31.924c0 3.16 2.57 5.73 5.729 5.73H51.27v4.13a.187.187 0 0 1-.187.187H13.617a5.736 5.736 0 0 0-5.73 5.729v10.046H5.595A5.601 5.601 0 0 0 0 108.139v8.157a5.601 5.601 0 0 0 5.594 5.595H21.64a5.601 5.601 0 0 0 5.594-5.595v-8.157a5.601 5.601 0 0 0-5.594-5.595h-2.293v-4.13c0-.103.083-.187.186-.187h6.289a1.785 1.785 0 1 0 0-3.57h-6.289a3.761 3.761 0 0 0-3.757 3.757v4.13h-4.317V92.498a2.16 2.16 0 0 1 2.158-2.158h37.467a3.762 3.762 0 0 0 3.757-3.758v-4.13h4.317v4.13a3.762 3.762 0 0 0 3.758 3.758h37.467a2.16 2.16 0 0 1 2.158 2.158v10.046h-4.317v-4.13a3.761 3.761 0 0 0-3.757-3.758H62.916a3.762 3.762 0 0 0-3.758 3.758v4.13h-4.317v-4.13a3.762 3.762 0 0 0-3.757-3.758h-18.12a1.786 1.786 0 0 0 0 3.571h18.12c.103 0 .186.084.186.187v4.13h-2.293a5.601 5.601 0 0 0-5.594 5.595v8.157a5.601 5.601 0 0 0 5.594 5.595h16.046a5.601 5.601 0 0 0 5.594-5.595v-8.157a5.601 5.601 0 0 0-5.594-5.595h-2.294v-4.13c0-.103.084-.187.187-.187h31.551c.103 0 .186.084.186.187v4.13H92.36a5.601 5.601 0 0 0-5.594 5.595v8.157a5.601 5.601 0 0 0 5.594 5.595h16.046a5.601 5.601 0 0 0 5.594-5.595v-8.157a5.601 5.601 0 0 0-5.594-5.595ZM57 9.083c-.726 0-1.451.21-2.084.633L24.343 30.098a.179.179 0 0 1-.14.027.18.18 0 0 1-.119-.079l-2.187-3.281a.18.18 0 0 1-.028-.14c.01-.05.037-.09.08-.12L55.802 3.937a2.153 2.153 0 0 1 2.394 0l33.854 22.57c.043.029.07.068.08.119.01.05 0 .097-.028.14l-2.188 3.281a.18.18 0 0 1-.118.08.18.18 0 0 1-.14-.028L59.084 9.716A3.753 3.753 0 0 0 57 9.083Zm21.624 54.022a.119.119 0 0 1-.119-.119v-4.079c0-.065.053-.119.119-.119h4.198v4.317h-4.198Zm-43.248-4.317c.066 0 .119.054.119.12v4.078a.119.119 0 0 1-.119.12h-4.198v-4.318h4.198ZM21.64 106.115c1.116 0 2.023.908 2.023 2.024v8.157a2.026 2.026 0 0 1-2.023 2.024H5.594a2.026 2.026 0 0 1-2.023-2.024v-8.157c0-1.116.908-2.024 2.023-2.024H21.64Zm41.462-43.01h-4.316V50.901h4.316v12.204ZM46.954 47.211v-4.08c0-.065.053-.118.119-.118h19.854c.066 0 .12.053.12.119v4.079a.119.119 0 0 1-.12.119H47.073a.12.12 0 0 1-.12-.12Zm3.944 3.69h4.316v12.204h-4.316V50.901Zm-3.944 15.894c0-.065.053-.119.119-.119h19.854c.066 0 .12.054.12.12v4.197H46.953v-4.198Zm-7.888 12.086v-4.198c0-.066.053-.119.119-.119h35.63c.066 0 .119.053.119.119v4.198H39.066Zm27.98 29.258v8.157a2.026 2.026 0 0 1-2.023 2.024H48.977a2.026 2.026 0 0 1-2.023-2.024v-8.157c0-1.116.908-2.024 2.023-2.024h16.046c1.116 0 2.023.908 2.023 2.024Zm43.383 8.157a2.026 2.026 0 0 1-2.023 2.024H92.36a2.026 2.026 0 0 1-2.023-2.024v-8.157c0-1.116.907-2.024 2.023-2.024h16.046c1.115 0 2.023.908 2.023 2.024v8.157Z" fill="#F79009"/></svg>