<svg width="107" height="128" fill="none" xmlns="http://www.w3.org/2000/svg"><path d="M53.543 0c-52.56.493-73.36 67.401-30.49 97.67a2.494 2.494 0 0 0-1.01 2.005V125.5a2.5 2.5 0 0 0 2.5 2.5h12.648a2.5 2.5 0 0 0 2.5-2.5v-1.441h3.361c.78 0 1.53.253 2.101.704a13.872 13.872 0 0 0 8.745 3.045h11.21a9.628 9.628 0 0 0 9.641-8.777l1.783-13.138a9.647 9.647 0 0 0-.344-3.708C127.704 77.255 110.844.894 53.543 0Zm-26.5 123v-20.826h7.647V123h-7.647Zm44.525-17.713-1.78 13.126c-.006.04-.01.08-.014.12a4.657 4.657 0 0 1-4.665 4.275h-11.21a8.922 8.922 0 0 1-5.636-1.96c-2.634-2.125-5.423-1.782-8.572-1.788v-17.198c1.89-.528 3.285-1.933 4.301-3.555.572-.902 9.36-14.833 9.36-14.833l1.752.902c2.058 1.09 2.805 3.537 1.753 5.599l-2.439 4.354c-1.43 2.587.49 5.919 3.489 5.919h8.992c2.688 0 4.871 2.359 4.67 5.039Zm22.107-24.28A48.595 48.595 0 0 1 73.55 97.895a9.74 9.74 0 0 0-6.652-2.648h-7.264l.318-.568c30.598-4.248 45.871-42 26.645-66.308-5.396-7.06-13.047-12.294-21.544-14.737a2.5 2.5 0 1 0-1.381 4.805c7.473 2.149 14.203 6.755 18.953 12.968 16.122 20.321 4.686 52.047-20.32 57.712.452-3.697-1.517-7.398-4.815-9.138l-3.883-2.006c-1.203-.622-2.668-.138-3.341 1.014l-6.264 9.927C8.453 78.78 7.956 29.3 43.305 18.472a2.5 2.5 0 0 0-1.397-4.801c-39.455 12.035-39.87 66.957-.681 79.645l-1.74 2.758c-.661.86-1.178 1.085-2.317 1.1h-5.153C-13.65 73.822 2.182 5.76 53.544 5c38.472-.503 62.256 44.584 40.13 76.006Z" fill="#F79009"/><path d="M53.542 26.649a2.5 2.5 0 0 0-2.082 1.116l-7.713 11.606-13.421 3.75c-1.69.47-2.38 2.582-1.287 3.96l8.654 10.922-.581 13.923c-.073 1.751 1.72 3.061 3.368 2.447l13.062-4.855 13.062 4.855c1.648.614 3.442-.695 3.37-2.447l-.582-13.923 8.654-10.922c1.092-1.379.402-3.49-1.287-3.96l-13.42-3.75-7.714-11.606a2.5 2.5 0 0 0-2.083-1.116Zm7.556 17.287 10.693 2.988-6.895 8.702a2.5 2.5 0 0 0-.538 1.657l.463 11.093-10.407-3.868a2.498 2.498 0 0 0-1.742 0l-10.408 3.868.463-11.093a2.5 2.5 0 0 0-.538-1.657l-6.895-8.702 10.693-2.988a2.499 2.499 0 0 0 1.41-1.024l6.146-9.247 6.146 9.247c.331.5.831.863 1.409 1.024ZM51.236 15.475c.847 2.035 3.834 2.005 4.635-.052.833-2.14-1.56-4.21-3.56-3.078a2.52 2.52 0 0 0-1.075 3.13Z" fill="#F79009"/></svg>